<svg width="56" height="31" viewBox="0 0 56 31" fill="none" xmlns="http://www.w3.org/2000/svg">
<g id="Frame">
<g id="Vector">
<path d="M40.8197 12.5787C39.5565 6.66212 33.9321 2.2998 27.1705 2.2998C21.8021 2.2998 17.1282 5.03315 14.7969 9.1524C9.2056 9.70278 4.97461 14.1081 4.97461 19.4313C4.97461 25.1329 9.91466 29.7102 16.0726 29.7102H40.1819C45.3088 29.7102 49.494 25.9506 49.494 21.2035C49.494 16.6629 45.64 12.8969 40.8197 12.5787ZM40.1819 26.2839H16.0726C11.9766 26.2839 8.67393 23.2237 8.67393 19.4313C8.67393 15.6388 11.9766 12.5787 16.0726 12.5787C20.1685 12.5787 23.4712 15.6388 23.4712 19.4313H27.1705C27.1705 14.6842 23.7155 10.7108 19.0065 9.50684C20.8734 7.19351 23.8268 5.7261 27.1705 5.7261C32.8083 5.7261 37.3755 9.95796 37.3755 15.178V16.005H40.1819C43.2562 16.005 45.7947 18.357 45.7947 21.2035C45.7947 24.05 43.2562 26.2839 40.1819 26.2839Z" fill="white"/>
</g>
<g id="Vector_2">
<path d="M22.1959 11.6335C22.1956 11.6335 22.1964 11.6335 22.1959 11.6335C22.0385 11.6335 21.9251 11.6484 21.8132 11.7516C21.7002 11.856 21.6857 11.9581 21.6857 12.1061V20.3764C21.6857 20.6797 21.867 20.9664 22.1959 20.9672C23.5822 20.9702 25.9512 21.1868 27.5536 22.7394V14.1146C27.5536 14.0118 27.4796 13.9582 27.426 13.8783C26.1109 11.9173 23.5853 11.6365 22.1959 11.6335Z" fill="white"/>
</g>
<g id="Vector_3">
<path d="M34.3151 20.3765V12.1061C34.3151 11.9581 34.1736 11.8561 34.0611 11.7517C33.9497 11.6484 33.8365 11.6335 33.6799 11.6335C33.6794 11.6335 33.6804 11.6335 33.6799 11.6335C32.2961 11.6366 29.7809 11.9174 28.471 13.8784C28.4176 13.9583 28.471 14.0119 28.471 14.1147V22.7395C30.0668 21.1868 32.2992 20.9705 33.6799 20.9672C34.0073 20.9666 34.3151 20.6797 34.3151 20.3765Z" fill="white"/>
</g>
<g id="Vector_4">
<path d="M35.718 13.5239H35.3353V20.3678C35.3353 21.1411 34.6419 21.7819 33.8045 21.7838C32.6285 21.7864 30.713 21.998 29.3398 23.1998C31.7147 22.6621 34.1637 23.0172 35.5904 23.3178C35.7686 23.3553 35.958 23.3051 36.1007 23.1998C36.2428 23.0949 36.3558 22.8961 36.3558 22.7278V13.9959C36.3558 13.6922 36.0463 13.5239 35.718 13.5239Z" fill="white"/>
</g>
<g id="Vector_5">
<path d="M20.6655 20.3678V13.5239H20.1553C19.8269 13.5239 19.6451 13.6922 19.6451 13.9959V22.7277C19.6451 22.8962 19.6305 23.0949 19.7726 23.1997C19.9153 23.3049 20.1043 23.3554 20.2829 23.3177C21.7095 23.0171 24.286 22.662 26.6606 23.1997C25.2876 21.998 23.2445 21.7863 22.0686 21.7838C21.2313 21.7818 20.6655 21.141 20.6655 20.3678Z" fill="white"/>
</g>
<g id="Vector_6">
<path fill-rule="evenodd" clip-rule="evenodd" d="M44.2649 6.31683L44.7751 7.85276H46.561L45.1578 8.79794L45.6681 10.3339L44.2649 9.38869L42.7341 10.3339L43.3719 8.79794L41.9688 7.85276H43.6271L44.2649 6.31683ZM48.9847 0.882019L49.3674 1.8272H50.643L49.6225 2.53609L50.0052 3.59943L48.9847 2.89054L48.0918 3.59943L48.4744 2.53609L47.4539 1.8272H48.602L48.9847 0.882019ZM44.2649 1.11832L44.6476 2.0635H45.6681L44.7751 2.65424L45.1578 3.71757L44.2649 3.12683L43.3719 3.71757L43.7546 2.65424L42.8617 2.0635H43.8822L44.2649 1.11832ZM50.5154 4.89906L50.8981 5.96239H52.0462L51.0257 6.67128L51.4084 7.73461L50.5154 7.02572L49.4949 7.73461L49.8776 6.67128L48.8571 5.96239H50.1328L50.5154 4.89906ZM48.2193 7.85276L48.4744 8.91609H49.6225L48.7296 9.50683L49.1123 10.452L48.2193 9.86128L47.3264 10.452L47.5815 9.50683L46.6886 8.91609H47.8366L48.2193 7.85276ZM46.8161 3.59943L46.3059 4.78091H44.9027L46.0508 5.4898L45.6681 6.78943L46.8161 5.96239L47.8366 6.78943L47.4539 5.4898L48.602 4.78091H47.1988L46.8161 3.59943Z" fill="white"/>
</g>
</g>
</svg>
