<svg width="120" height="26" viewBox="0 0 120 26" fill="none" xmlns="http://www.w3.org/2000/svg">
<g id="Group 1">
<path id="Vector" d="M9.8773 4.55961H7.52989C7.48703 4.24978 7.3995 3.9746 7.26729 3.73406C7.13509 3.48966 6.96538 3.28221 6.75817 3.11094C6.55092 2.93929 6.31156 2.80843 6.04001 2.71722C5.77202 2.626 5.48086 2.58058 5.16642 2.58058C4.59832 2.58058 4.10349 2.72453 3.68189 3.01242C3.26026 3.29645 2.93336 3.71211 2.70112 4.25864C2.46888 4.80169 2.35276 5.46137 2.35276 6.23805C2.35276 7.03589 2.46888 7.70673 2.70112 8.24979C2.93693 8.79285 3.26562 9.20274 3.68725 9.47985C4.10885 9.75696 4.59654 9.89512 5.15034 9.89512C5.4612 9.89512 5.74881 9.85317 6.01319 9.76965C6.28118 9.68575 6.51877 9.56375 6.72602 9.40325C6.93323 9.2393 7.10471 9.0407 7.2405 8.80747C7.37984 8.57423 7.47632 8.3079 7.52989 8.00924L9.8773 8.02002C9.81655 8.53383 9.66473 9.02954 9.42175 9.50717C9.18239 9.98095 8.85904 10.4055 8.45171 10.7811C8.04796 11.1525 7.56562 11.4477 7.00469 11.6667C6.44731 11.8815 5.81669 11.9892 5.11284 11.9892C4.13386 11.9892 3.25849 11.7633 2.48674 11.3111C1.71857 10.8592 1.11117 10.2049 0.66456 9.3486C0.22152 8.49226 0 7.45502 0 6.23805C0 5.01684 0.225093 3.97807 0.675279 3.12172C1.12546 2.26537 1.73643 1.61262 2.50818 1.16463C3.27992 0.712403 4.14816 0.486484 5.11284 0.486484C5.74881 0.486484 6.33834 0.577699 6.88143 0.760129C7.42806 0.942175 7.91221 1.20812 8.3338 1.55797C8.7554 1.90436 9.0984 2.32888 9.36281 2.83191C9.63077 3.33494 9.80229 3.91071 9.8773 4.55961ZM13.7816 0.639662V11.836H11.4985V0.639662H13.7816ZM19.3299 12C18.4974 12 17.7775 11.8195 17.1701 11.4589C16.5662 11.0944 16.1 10.5879 15.7713 9.939C15.4426 9.28664 15.2782 8.53036 15.2782 7.67016C15.2782 6.80266 15.4426 6.04484 15.7713 5.39594C16.1 4.74358 16.5662 4.23708 17.1701 3.87607C17.7775 3.51159 18.4974 3.32955 19.3299 3.32955C20.1624 3.32955 20.8805 3.51159 21.4843 3.87607C22.0918 4.23708 22.5598 4.74358 22.8885 5.39594C23.2172 6.04484 23.3816 6.80266 23.3816 7.67016C23.3816 8.53036 23.2172 9.28664 22.8885 9.939C22.5598 10.5879 22.0918 11.0944 21.4843 11.4589C20.8805 11.8195 20.1624 12 19.3299 12ZM19.3406 10.1961C19.7193 10.1961 20.0356 10.0868 20.2892 9.8678C20.5429 9.64573 20.734 9.34321 20.8627 8.96026C20.9949 8.5777 21.061 8.14202 21.061 7.654C21.061 7.1656 20.9949 6.72992 20.8627 6.34735C20.734 5.9644 20.5429 5.66189 20.2892 5.43982C20.0356 5.21736 19.7193 5.10613 19.3406 5.10613C18.9583 5.10613 18.6368 5.21736 18.3759 5.43982C18.1187 5.66189 17.924 5.9644 17.7918 6.34735C17.6631 6.72992 17.5988 7.1656 17.5988 7.654C17.5988 8.14202 17.6631 8.5777 17.7918 8.96026C17.924 9.34321 18.1187 9.64573 18.3759 9.8678C18.6368 10.0868 18.9583 10.1961 19.3406 10.1961ZM30.1451 8.26056V3.43886H32.4282V11.836H30.2362V10.3108H30.1505C29.9646 10.8027 29.6556 11.1983 29.2233 11.497C28.7945 11.796 28.2711 11.9453 27.653 11.9453C27.1027 11.9453 26.6186 11.818 26.2006 11.5628C25.7826 11.3076 25.4556 10.9451 25.2198 10.4747C24.9876 10.0044 24.8697 9.44136 24.8661 8.78553V3.43886H27.1492V8.36987C27.1528 8.86559 27.2832 9.25739 27.5404 9.54527C27.7977 9.83316 28.1425 9.9771 28.5748 9.9771C28.8499 9.9771 29.1071 9.9136 29.3465 9.78582C29.5859 9.65458 29.7789 9.46137 29.9254 9.20658C30.0754 8.95141 30.1486 8.6362 30.1451 8.26056ZM37.2877 11.9727C36.6625 11.9727 36.0962 11.8087 35.5888 11.4808C35.0851 11.149 34.6849 10.6626 34.3884 10.021C34.0954 9.37593 33.9489 8.58501 33.9489 7.64823C33.9489 6.68604 34.1007 5.88627 34.4044 5.24854C34.7081 4.60695 35.1119 4.12778 35.6157 3.81064C36.123 3.48966 36.6786 3.32955 37.2824 3.32955C37.7435 3.32955 38.1276 3.4096 38.4347 3.5701C38.7456 3.72674 38.9957 3.92341 39.1851 4.1605C39.3779 4.39373 39.5243 4.62311 39.6243 4.84942H39.6941V0.639662H41.9719V11.836H39.7209V10.4913H39.6243C39.5172 10.7245 39.3655 10.9558 39.1689 11.1856C38.9761 11.4115 38.7241 11.599 38.4132 11.7487C38.1061 11.898 37.7307 11.9727 37.2877 11.9727ZM38.0114 10.1195C38.3792 10.1195 38.6901 10.0175 38.9437 9.81315C39.201 9.6057 39.3976 9.31589 39.5334 8.9441C39.6726 8.57231 39.7424 8.13663 39.7424 7.63745C39.7424 7.13827 39.6745 6.70452 39.5387 6.33619C39.4028 5.96825 39.2063 5.68383 38.9493 5.48331C38.692 5.28279 38.3792 5.18272 38.0114 5.18272C37.636 5.18272 37.3198 5.28664 37.0628 5.49447C36.8054 5.70192 36.6107 5.99019 36.4785 6.35813C36.3463 6.72607 36.2802 7.15251 36.2802 7.63745C36.2802 8.12586 36.3463 8.55769 36.4785 8.93294C36.6143 9.30473 36.809 9.59646 37.0628 9.80776C37.3198 10.0156 37.636 10.1195 38.0114 10.1195ZM47.385 11.836V0.639662H54.7808V2.59136H49.7054V5.25931H54.4001V7.21101H49.7054V9.88435H54.8023V11.836H47.385ZM59.6163 11.9727C58.9911 11.9727 58.4248 11.8087 57.9173 11.4808C57.4136 11.149 57.0133 10.6626 56.7167 10.021C56.424 9.37593 56.2772 8.58501 56.2772 7.64823C56.2772 6.68604 56.4292 5.88627 56.733 5.24854C57.0367 4.60695 57.4404 4.12778 57.9441 3.81064C58.4516 3.48966 59.0069 3.32955 59.611 3.32955C60.0717 3.32955 60.4558 3.4096 60.7633 3.5701C61.0738 3.72674 61.3239 3.92341 61.5133 4.1605C61.7065 4.39373 61.8529 4.62311 61.9529 4.84942H62.0227V0.639662H64.3005V11.836H62.0495V10.4913H61.9529C61.8457 10.7245 61.6937 10.9558 61.4975 11.1856C61.3043 11.4115 61.0527 11.599 60.7418 11.7487C60.4343 11.898 60.0592 11.9727 59.6163 11.9727ZM60.3396 10.1195C60.7078 10.1195 61.0187 10.0175 61.2723 9.81315C61.5296 9.6057 61.7261 9.31589 61.862 8.9441C62.0012 8.57231 62.071 8.13663 62.071 7.63745C62.071 7.13827 62.0031 6.70452 61.8672 6.33619C61.7314 5.96825 61.5348 5.68383 61.2775 5.48331C61.0202 5.28279 60.7078 5.18272 60.3396 5.18272C59.9645 5.18272 59.6484 5.28664 59.391 5.49447C59.1337 5.70192 58.939 5.99019 58.807 6.35813C58.6749 6.72607 58.6085 7.15251 58.6085 7.63745C58.6085 8.12586 58.6749 8.55769 58.807 8.93294C58.9428 9.30473 59.1375 9.59646 59.391 9.80776C59.6484 10.0156 59.9645 10.1195 60.3396 10.1195ZM71.4563 8.26056V3.43886H73.7393V11.836H71.5476V10.3108H71.4616C71.276 10.8027 70.967 11.1983 70.5346 11.497C70.106 11.796 69.5823 11.9453 68.9642 11.9453C68.4141 11.9453 67.9301 11.818 67.512 11.5628C67.094 11.3076 66.7669 10.9451 66.531 10.4747C66.299 10.0044 66.1809 9.44136 66.1775 8.78553V3.43886H68.4606V8.36987C68.464 8.86559 68.5945 9.25739 68.8518 9.54527C69.1091 9.83316 69.4536 9.9771 69.886 9.9771C70.161 9.9771 70.4184 9.9136 70.6579 9.78582C70.8972 9.65458 71.0903 9.46137 71.2367 9.20658C71.3869 8.95141 71.4601 8.6362 71.4563 8.26056ZM79.2853 12C78.442 12 77.7165 11.818 77.109 11.4535C76.5053 11.0852 76.0409 10.5748 75.7156 9.92245C75.3942 9.27009 75.2335 8.51958 75.2335 7.67016C75.2335 6.80997 75.3961 6.05562 75.7213 5.40672C76.0499 4.75436 76.5163 4.24594 77.12 3.88146C77.7236 3.51352 78.442 3.32955 79.2743 3.32955C79.9927 3.32955 80.6213 3.46233 81.1608 3.72866C81.7004 3.99461 82.1275 4.36833 82.4418 4.84942C82.756 5.33051 82.9296 5.89512 82.9617 6.54402H80.8073C80.7466 6.12489 80.5858 5.78774 80.3247 5.53257C80.0674 5.27393 79.7301 5.14462 79.3121 5.14462C78.9582 5.14462 78.6491 5.24276 78.3847 5.43982C78.1239 5.63302 77.9202 5.91514 77.7738 6.28693C77.6274 6.65872 77.5538 7.10902 77.5538 7.63745C77.5538 8.1732 77.6255 8.62889 77.7685 9.00414C77.9149 9.37939 78.1202 9.66574 78.3847 9.86241C78.6491 10.0595 78.9582 10.1576 79.3121 10.1576C79.5728 10.1576 79.8067 10.103 80.0138 9.99365C80.2247 9.88435 80.3979 9.72578 80.5338 9.51795C80.6734 9.30665 80.7643 9.05341 80.8073 8.75821H82.9617C82.9258 9.39979 82.7545 9.9644 82.447 10.4528C82.1433 10.9378 81.7238 11.3168 81.1876 11.5901C80.6518 11.8634 80.0176 12 79.2853 12ZM86.7709 11.9946C86.2457 11.9946 85.7775 11.9015 85.3666 11.716C84.9557 11.5262 84.6305 11.2476 84.3913 10.8793C84.1554 10.5075 84.0374 10.0448 84.0374 9.49062C84.0374 9.02416 84.1215 8.63235 84.2894 8.31522C84.4573 7.99808 84.6859 7.74329 84.9753 7.55008C85.2647 7.35688 85.5933 7.21101 85.9616 7.11248C86.3332 7.01434 86.7226 6.94506 87.1297 6.90504C87.6085 6.85385 87.9945 6.8065 88.2876 6.76263C88.5804 6.71529 88.7932 6.64601 88.9253 6.5548C89.0573 6.46397 89.1237 6.32888 89.1237 6.1503V6.11758C89.1237 5.77119 89.0162 5.50332 88.8019 5.31396C88.5914 5.12461 88.291 5.02954 87.9017 5.02954C87.4908 5.02954 87.1637 5.12268 86.9207 5.30857C86.6781 5.49062 86.517 5.72039 86.4385 5.9975L84.3267 5.82238C84.4343 5.31204 84.6448 4.87097 84.9595 4.49957C85.2738 4.12393 85.6794 3.83604 86.1759 3.63552C86.6762 3.43154 87.255 3.32955 87.9122 3.32955C88.3695 3.32955 88.8072 3.38421 89.2252 3.49351C89.647 3.60281 90.0202 3.77216 90.3454 4.00193C90.674 4.23131 90.9333 4.5269 91.1227 4.88752C91.3121 5.24469 91.4068 5.67305 91.4068 6.17223V11.836H89.2414V10.6714H89.1773C89.0449 10.9339 88.8679 11.1656 88.6464 11.3657C88.425 11.5628 88.159 11.7175 87.8481 11.8307C87.5372 11.94 87.178 11.9946 86.7709 11.9946ZM87.4247 10.3874C87.7605 10.3874 88.0571 10.32 88.3144 10.1849C88.5714 10.0464 88.7736 9.86049 88.92 9.62725C89.0664 9.39402 89.1396 9.12999 89.1396 8.83479V7.94343C89.0683 7.99077 88.9698 8.03464 88.8449 8.07467C88.7234 8.11123 88.5857 8.14587 88.4321 8.17858C88.2786 8.20783 88.125 8.23516 87.9715 8.26056C87.8175 8.2825 87.6783 8.30251 87.5534 8.3206C87.2851 8.36101 87.0512 8.42452 86.8513 8.51227C86.6513 8.59964 86.4958 8.71818 86.3849 8.86751C86.274 9.01338 86.2189 9.19542 86.2189 9.41403C86.2189 9.73117 86.3313 9.97364 86.5566 10.1414C86.7852 10.3054 87.0746 10.3874 87.4247 10.3874ZM97.5564 3.43886V5.18811H92.599V3.43886H97.5564ZM93.7245 1.42712H96.0075V9.25546C96.0075 9.47061 96.04 9.63841 96.1041 9.7585C96.1683 9.87511 96.2577 9.95709 96.372 10.0044C96.4901 10.0522 96.6259 10.0756 96.7795 10.0756C96.8867 10.0756 96.9938 10.0664 97.101 10.0483C97.2081 10.0264 97.2904 10.0102 97.3473 9.99904L97.7065 11.7321C97.5922 11.7687 97.4315 11.8106 97.2243 11.858C97.0168 11.9088 96.7652 11.94 96.4686 11.9507C95.9185 11.9727 95.4359 11.898 95.0217 11.7267C94.6108 11.5555 94.2908 11.2895 94.0622 10.9285C93.8336 10.5679 93.7211 10.1122 93.7245 9.56182V1.42712ZM99.0437 11.836V3.43886H101.327V11.836H99.0437ZM100.191 2.3562C99.8511 2.3562 99.5602 2.24151 99.3172 2.01174C99.0776 1.77851 98.958 1.49986 98.958 1.17541C98.958 0.854806 99.0776 0.579625 99.3172 0.349855C99.5602 0.116622 99.8511 0 100.191 0C100.53 0 100.82 0.116622 101.059 0.349855C101.302 0.579625 101.423 0.854806 101.423 1.17541C101.423 1.49986 101.302 1.77851 101.059 2.01174C100.82 2.24151 100.53 2.3562 100.191 2.3562ZM106.875 12C106.043 12 105.323 11.8195 104.715 11.4589C104.112 11.0944 103.645 10.5879 103.317 9.939C102.988 9.28664 102.823 8.53036 102.823 7.67016C102.823 6.80266 102.988 6.04484 103.317 5.39594C103.645 4.74358 104.112 4.23708 104.715 3.87607C105.323 3.51159 106.043 3.32955 106.875 3.32955C107.708 3.32955 108.426 3.51159 109.03 3.87607C109.637 4.23708 110.105 4.74358 110.434 5.39594C110.763 6.04484 110.927 6.80266 110.927 7.67016C110.927 8.53036 110.763 9.28664 110.434 9.939C110.105 10.5879 109.637 11.0944 109.03 11.4589C108.426 11.8195 107.708 12 106.875 12ZM106.886 10.1961C107.265 10.1961 107.581 10.0868 107.834 9.8678C108.088 9.64573 108.279 9.34321 108.408 8.96026C108.54 8.5777 108.606 8.14202 108.606 7.654C108.606 7.1656 108.54 6.72992 108.408 6.34735C108.279 5.9644 108.088 5.66189 107.834 5.43982C107.581 5.21736 107.265 5.10613 106.886 5.10613C106.504 5.10613 106.182 5.21736 105.921 5.43982C105.664 5.66189 105.469 5.9644 105.337 6.34735C105.208 6.72992 105.144 7.1656 105.144 7.654C105.144 8.14202 105.208 8.5777 105.337 8.96026C105.469 9.34321 105.664 9.64573 105.921 9.8678C106.182 10.0868 106.504 10.1961 106.886 10.1961ZM114.694 6.98124V11.836H112.411V3.43886H114.587V4.92024H114.684C114.866 4.43183 115.171 4.0458 115.6 3.76138C116.029 3.4735 116.549 3.32955 117.16 3.32955C117.731 3.32955 118.23 3.45694 118.655 3.71212C119.08 3.96729 119.411 4.33176 119.646 4.80555C119.882 5.27586 120 5.83701 120 6.48937V11.836H117.717V6.90504C117.721 6.39084 117.592 5.99019 117.331 5.70192C117.07 5.41057 116.711 5.2647 116.254 5.2647C115.947 5.2647 115.675 5.33205 115.439 5.46714C115.207 5.60185 115.025 5.79852 114.893 6.05754C114.764 6.31271 114.698 6.62061 114.694 6.98124Z" fill="white"/>
<path id="Vector_2" d="M2.74626 25.9961C2.17666 25.9961 1.68709 25.8914 1.27752 25.6819C0.867958 25.4725 0.551965 25.1901 0.329554 24.8348C0.10985 24.4768 0 24.073 0 23.6242C0 23.2852 0.0678103 22.985 0.203427 22.7232C0.341759 22.4614 0.531621 22.2189 0.773025 21.9959C1.01714 21.7729 1.29922 21.551 1.61928 21.3307L3.09616 20.3102C3.31315 20.1667 3.47726 20.0154 3.58847 19.8556C3.70239 19.6958 3.75933 19.5084 3.75933 19.2935C3.75933 19.1116 3.68341 18.9394 3.53149 18.7769C3.38232 18.6144 3.17617 18.5333 2.91307 18.5333C2.73679 18.5333 2.58082 18.576 2.44521 18.6613C2.31231 18.7439 2.20786 18.8525 2.13192 18.9875C2.05868 19.1225 2.02207 19.266 2.02207 19.4173C2.02207 19.6019 2.07225 19.7893 2.1726 19.9793C2.27568 20.1694 2.40858 20.3664 2.57131 20.5704C2.73679 20.7741 2.91307 20.9905 3.10024 21.219L7.01011 25.872H5.41525L2.16854 22.0952C1.92713 21.8086 1.69387 21.5262 1.46874 21.2481C1.24633 20.97 1.06325 20.6806 0.919491 20.3804C0.778448 20.0771 0.707926 19.7493 0.707926 19.3967C0.707926 18.9972 0.798792 18.6407 0.980519 18.3266C1.16225 18.0097 1.41586 17.7602 1.74134 17.5787C2.06953 17.3968 2.45334 17.3056 2.89272 17.3056C3.33213 17.3056 3.70915 17.3941 4.0238 17.5702C4.33844 17.7467 4.58118 17.981 4.75208 18.2726C4.92294 18.5647 5.00837 18.8832 5.00837 19.2272C5.00837 19.6267 4.91072 19.9847 4.71546 20.3016C4.52015 20.6158 4.24893 20.9009 3.90174 21.1569L2.21737 22.409C1.9407 22.613 1.74269 22.8198 1.62335 23.0288C1.50401 23.2356 1.44433 23.4121 1.44433 23.5579C1.44433 23.7809 1.49994 23.9834 1.61114 24.1653C1.72235 24.3472 1.87831 24.4931 2.07903 24.6032C2.28244 24.7107 2.51979 24.7646 2.79102 24.7646C3.0894 24.7646 3.38369 24.6971 3.6739 24.5621C3.9641 24.4244 4.22857 24.2285 4.46726 23.9753C4.70595 23.722 4.89583 23.4187 5.03686 23.0661C5.1779 22.7108 5.24844 22.3171 5.24844 21.8842H6.51375C6.51375 22.4187 6.45543 22.8845 6.3388 23.281C6.22217 23.675 6.07162 24.0082 5.8872 24.2809C5.70275 24.5509 5.50744 24.7673 5.30133 24.9298C5.23622 24.9768 5.17385 25.0233 5.11416 25.0703C5.05451 25.1172 4.99211 25.1641 4.92699 25.2107C4.63407 25.4806 4.29097 25.6792 3.89765 25.8061C3.50708 25.9325 3.12327 25.9961 2.74626 25.9961ZM16.9162 17.4092L19.0847 24.0703H19.1701L21.3346 17.4092H22.9946L20.0571 25.872H18.1937L15.2603 17.4092H16.9162ZM26.5475 25.872V19.5247H28.0203V25.872H26.5475ZM27.288 18.6241C27.0547 18.6241 26.854 18.5457 26.6858 18.3886C26.5177 18.2288 26.4336 18.0372 26.4336 17.8142C26.4336 17.588 26.5177 17.3968 26.6858 17.2397C26.854 17.0799 27.0547 17 27.288 17C27.5239 17 27.7247 17.0799 27.8901 17.2397C28.0583 17.3968 28.1424 17.588 28.1424 17.8142C28.1424 18.0372 28.0583 18.2288 27.8901 18.3886C27.7247 18.5457 27.5239 18.6241 27.288 18.6241ZM36.9946 21.2027L35.652 21.3513C35.614 21.2136 35.5475 21.084 35.4526 20.963C35.3604 20.8416 35.2356 20.7438 35.0783 20.6694C34.921 20.5953 34.7284 20.558 34.5006 20.558C34.1941 20.558 33.9364 20.6255 33.7275 20.7605C33.5214 20.8955 33.4197 21.0704 33.4224 21.2853C33.4197 21.4699 33.4861 21.6201 33.6218 21.7356C33.7601 21.8512 33.9879 21.9463 34.3053 22.0207L35.3712 22.2523C35.9625 22.3815 36.402 22.587 36.6895 22.8679C36.9797 23.1487 37.126 23.5168 37.129 23.971C37.126 24.3705 37.011 24.7231 36.783 25.0291C36.5581 25.3321 36.2446 25.5691 35.8432 25.7397C35.4418 25.9104 34.9807 25.9961 34.4599 25.9961C33.695 25.9961 33.0793 25.8336 32.6128 25.5082C32.1462 25.1804 31.8682 24.7247 31.7787 24.1405L33.2149 24.0001C33.28 24.2867 33.4184 24.5028 33.6299 24.649C33.8415 24.7949 34.1168 24.8678 34.4558 24.8678C34.8057 24.8678 35.0865 24.7949 35.298 24.649C35.5123 24.5028 35.6194 24.3224 35.6194 24.1075C35.6194 23.9256 35.5502 23.7755 35.4119 23.6572C35.2763 23.5385 35.0647 23.4477 34.7772 23.3845L33.7113 23.1572C33.1118 23.0304 32.6684 22.8171 32.3809 22.5164C32.0934 22.2135 31.9509 21.8307 31.9537 21.3679C31.9509 20.9766 32.0554 20.6379 32.2669 20.3513C32.4812 20.0619 32.7782 19.8389 33.1579 19.6818C33.5404 19.522 33.9812 19.4421 34.4802 19.4421C35.2126 19.4421 35.7889 19.6007 36.2094 19.9173C36.6326 20.2342 36.8942 20.6628 36.9946 21.2027ZM42.662 26C42.266 26 41.9097 25.9286 41.5923 25.7851C41.2776 25.6393 41.0279 25.4244 40.8434 25.1405C40.6616 24.8569 40.5711 24.507 40.5711 24.0909C40.5711 23.7328 40.636 23.4369 40.7662 23.2026C40.8965 22.9683 41.0741 22.781 41.2994 22.6406C41.5243 22.5002 41.7779 22.3939 42.0601 22.3225C42.3446 22.248 42.6391 22.1941 42.9431 22.1612C43.3089 22.1228 43.6061 22.0882 43.8341 22.058C44.0617 22.025 44.227 21.9753 44.3301 21.909C44.4359 21.8404 44.489 21.7341 44.489 21.591V21.5661C44.489 21.2551 44.3981 21.0138 44.2163 20.8431C44.0346 20.6721 43.773 20.5867 43.4312 20.5867C43.0703 20.5867 42.7842 20.6666 42.5726 20.8264C42.3637 20.9863 42.2228 21.1752 42.1495 21.3928L40.7743 21.1942C40.8827 20.8086 41.0618 20.4863 41.3112 20.2272C41.561 19.9657 41.8661 19.7699 42.227 19.6407C42.5875 19.5084 42.9862 19.4421 43.4231 19.4421C43.7241 19.4421 44.0239 19.4782 44.3221 19.5495C44.6204 19.6213 44.8931 19.7396 45.1398 19.9048C45.3869 20.0678 45.5847 20.2892 45.734 20.5704C45.8856 20.8513 45.9616 21.2027 45.9616 21.6239V25.872H44.5459V25.0001H44.497C44.4077 25.1765 44.2813 25.3418 44.1186 25.4961C43.9586 25.6474 43.7565 25.77 43.5125 25.8639C43.2711 25.9546 42.9878 26 42.662 26ZM43.0447 24.9008C43.3403 24.9008 43.5965 24.8418 43.8134 24.7231C44.0307 24.6021 44.1972 24.4423 44.3141 24.2441C44.4333 24.0455 44.4928 23.8294 44.4928 23.5951V22.8473C44.447 22.8857 44.3683 22.9214 44.2572 22.9548C44.1484 22.9877 44.0265 23.0164 43.891 23.0412C43.7554 23.0661 43.621 23.0882 43.4881 23.1076C43.3552 23.127 43.2398 23.1433 43.1424 23.1572C42.9225 23.1875 42.7258 23.2371 42.5524 23.3058C42.3786 23.3748 42.2419 23.471 42.1415 23.5951C42.041 23.7162 41.991 23.8733 41.991 24.066C41.991 24.3418 42.0899 24.5497 42.2877 24.6901C42.4859 24.8305 42.738 24.9008 43.0447 24.9008ZM59.919 19.7357C59.8812 19.3746 59.7211 19.0938 59.4389 18.8925C59.1597 18.6915 58.7962 18.5911 58.3486 18.5911C58.0339 18.5911 57.7643 18.6392 57.539 18.7358C57.314 18.832 57.1418 18.9627 57.0222 19.1283C56.9031 19.2935 56.842 19.4821 56.8393 19.6942C56.8393 19.8707 56.8786 20.0235 56.9573 20.1531C57.0387 20.2822 57.1483 20.3928 57.2869 20.4836C57.4252 20.5716 57.5783 20.6461 57.7463 20.7066C57.9147 20.7671 58.0843 20.8183 58.255 20.8594L59.036 21.058C59.3507 21.1325 59.6532 21.2329 59.9434 21.3594C60.2363 21.4862 60.4983 21.646 60.7286 21.8388C60.9619 22.0316 61.1464 22.2647 61.282 22.5374C61.4175 22.8101 61.4855 23.1297 61.4855 23.4958C61.4855 23.9919 61.3606 24.4283 61.1113 24.8057C60.8615 25.1804 60.501 25.474 60.0289 25.6862C59.5596 25.8953 58.9913 26 58.3241 26C57.6761 26 57.1131 25.898 56.6358 25.6944C56.1611 25.4903 55.7895 25.1928 55.521 24.8018C55.2552 24.4105 55.1112 23.9341 55.0898 23.3721H56.5747C56.5964 23.6669 56.6858 23.912 56.8431 24.1075C57.0005 24.303 57.2052 24.4493 57.4576 24.5454C57.7127 24.642 57.9972 24.6901 58.3119 24.6901C58.6404 24.6901 58.9275 24.6405 59.1746 24.5416C59.424 24.4396 59.6192 24.2991 59.7605 24.1199C59.9014 23.938 59.9732 23.7259 59.9759 23.4834C59.9732 23.2631 59.9094 23.0812 59.7849 22.9381C59.66 22.7922 59.4851 22.6708 59.2598 22.5746C59.0375 22.4753 58.7771 22.3873 58.4788 22.3101L57.5309 22.0622C56.8447 21.883 56.302 21.6115 55.9033 21.2481C55.5072 20.8815 55.3094 20.3955 55.3094 19.7893C55.3094 19.2908 55.4423 18.8541 55.7081 18.4794C55.9766 18.1047 56.3413 17.8142 56.8027 17.6074C57.2636 17.398 57.7857 17.2936 58.3688 17.2936C58.9604 17.2936 59.4783 17.398 59.9232 17.6074C60.3708 17.8142 60.7221 18.102 60.9768 18.4712C61.2319 18.8374 61.3633 19.259 61.3717 19.7357H59.919ZM68.0531 25.9961C67.4268 25.9961 66.8856 25.8639 66.43 25.5993C65.9771 25.3321 65.6284 24.9547 65.3843 24.4671C65.1399 23.9768 65.0181 23.3997 65.0181 22.7356C65.0181 22.0828 65.1399 21.5099 65.3843 21.0165C65.6311 20.5208 65.9755 20.1352 66.4178 19.8595C66.8596 19.5813 67.379 19.4421 67.9759 19.4421C68.3609 19.4421 68.7245 19.5057 69.0663 19.6322C69.4107 19.7563 69.7143 19.9491 69.9775 20.2109C70.2433 20.4727 70.4522 20.8059 70.6042 21.2108C70.7562 21.6131 70.8322 22.0925 70.8322 22.6487V23.1076H65.7097V22.0991H69.4203C69.4176 21.8128 69.3565 21.558 69.237 21.335C69.1178 21.1088 68.9509 20.9312 68.7367 20.8016C68.5251 20.6721 68.2784 20.6077 67.9962 20.6077C67.6952 20.6077 67.4306 20.6818 67.203 20.8307C66.975 20.9766 66.7974 21.1693 66.6698 21.409C66.5449 21.646 66.4815 21.9063 66.4785 22.1902V23.0703C66.4785 23.4396 66.5449 23.7561 66.6778 24.0206C66.8107 24.2825 66.9967 24.4834 67.2354 24.6242C67.4741 24.7619 67.7537 24.8305 68.0737 24.8305C68.2879 24.8305 68.4816 24.8003 68.6553 24.7398C68.8291 24.6766 68.9796 24.5842 69.1071 24.4628C69.2343 24.3418 69.3305 24.1917 69.3958 24.0125L70.7711 24.1696C70.6844 24.5385 70.5186 24.8608 70.2746 25.1366C70.0332 25.4093 69.7239 25.6214 69.3469 25.7727C68.97 25.9216 68.5388 25.9961 68.0531 25.9961ZM74.5985 25.872V19.5247H76.0268V20.5829H76.0917C76.2055 20.2163 76.401 19.9339 76.6775 19.7357C76.9571 19.5344 77.2756 19.434 77.6338 19.434C77.7152 19.434 77.8061 19.4382 77.9061 19.4464C78.0092 19.4518 78.0948 19.4615 78.1627 19.4755V20.8513C78.1001 20.8292 78.0012 20.8102 77.8656 20.7935C77.7327 20.7741 77.604 20.7644 77.4791 20.7644C77.2107 20.7644 76.9693 20.8237 76.7551 20.942C76.5435 21.058 76.3766 21.219 76.2544 21.4257C76.1326 21.6325 76.0715 21.8706 76.0715 22.1406V25.872H74.5985ZM87.4338 19.5247L85.2084 25.872H83.5808L81.3554 19.5247H82.9258L84.3621 24.2398H84.4271L85.8676 19.5247H87.4338ZM90.9736 25.872V19.5247H92.4462V25.872H90.9736ZM91.7141 18.6241C91.4808 18.6241 91.2803 18.5457 91.1119 18.3886C90.9438 18.2288 90.8598 18.0372 90.8598 17.8142C90.8598 17.588 90.9438 17.3968 91.1119 17.2397C91.2803 17.0799 91.4808 17 91.7141 17C91.9501 17 92.1506 17.0799 92.3164 17.2397C92.4844 17.3968 92.5684 17.588 92.5684 17.8142C92.5684 18.0372 92.4844 18.2288 92.3164 18.3886C92.1506 18.5457 91.9501 18.6241 91.7141 18.6241ZM99.2074 25.9961C98.5834 25.9961 98.0479 25.8569 97.6004 25.5788C97.1554 25.3003 96.8125 24.9163 96.5711 24.4256C96.3324 23.9326 96.2129 23.3651 96.2129 22.7232C96.2129 22.0785 96.3351 21.5099 96.5792 21.0165C96.8232 20.5208 97.1677 20.1352 97.6126 19.8595C98.0602 19.5813 98.5891 19.4421 99.1994 19.4421C99.7065 19.4421 100.155 19.5371 100.546 19.7272C100.939 19.9145 101.252 20.1806 101.486 20.5247C101.719 20.8664 101.852 21.2659 101.885 21.7232H100.477C100.42 21.4176 100.284 21.1627 100.07 20.9587C99.8585 20.752 99.5748 20.6488 99.2196 20.6488C98.9187 20.6488 98.654 20.7314 98.4264 20.8967C98.1984 21.0592 98.0208 21.2935 97.8933 21.5991C97.7684 21.9051 97.7061 22.2713 97.7061 22.6984C97.7061 23.1308 97.7684 23.5028 97.8933 23.8143C98.0182 24.1227 98.1931 24.3608 98.418 24.5292C98.646 24.6944 98.9129 24.777 99.2196 24.777C99.4365 24.777 99.6305 24.7355 99.8013 24.6529C99.975 24.5676 100.12 24.445 100.237 24.2852C100.353 24.1254 100.433 23.9311 100.477 23.7026H101.885C101.849 24.1518 101.719 24.5497 101.494 24.8969C101.269 25.2413 100.962 25.5113 100.575 25.7068C100.187 25.8995 99.731 25.9961 99.2074 25.9961ZM108.381 25.9961C107.754 25.9961 107.213 25.8639 106.758 25.5993C106.305 25.3321 105.956 24.9547 105.712 24.4671C105.468 23.9768 105.346 23.3997 105.346 22.7356C105.346 22.0828 105.468 21.5099 105.712 21.0165C105.959 20.5208 106.304 20.1352 106.745 19.8595C107.188 19.5813 107.707 19.4421 108.304 19.4421C108.689 19.4421 109.052 19.5057 109.394 19.6322C109.739 19.7563 110.042 19.9491 110.305 20.2109C110.571 20.4727 110.78 20.8059 110.932 21.2108C111.084 21.6131 111.16 22.0925 111.16 22.6487V23.1076H106.038V22.0991H109.748C109.745 21.8128 109.684 21.558 109.565 21.335C109.446 21.1088 109.279 20.9312 109.065 20.8016C108.853 20.6721 108.606 20.6077 108.324 20.6077C108.023 20.6077 107.759 20.6818 107.531 20.8307C107.303 20.9766 107.125 21.1693 106.998 21.409C106.873 21.646 106.809 21.9063 106.806 22.1902V23.0703C106.806 23.4396 106.873 23.7561 107.006 24.0206C107.139 24.2825 107.325 24.4834 107.563 24.6242C107.802 24.7619 108.081 24.8305 108.401 24.8305C108.616 24.8305 108.81 24.8003 108.983 24.7398C109.157 24.6766 109.307 24.5842 109.435 24.4628C109.562 24.3418 109.658 24.1917 109.724 24.0125L111.099 24.1696C111.012 24.5385 110.847 24.8608 110.603 25.1366C110.361 25.4093 110.052 25.6214 109.675 25.7727C109.298 25.9216 108.866 25.9961 108.381 25.9961ZM119.866 21.2027L118.523 21.3513C118.485 21.2136 118.419 21.084 118.323 20.963C118.231 20.8416 118.107 20.7438 117.949 20.6694C117.792 20.5953 117.599 20.558 117.372 20.558C117.065 20.558 116.807 20.6255 116.598 20.7605C116.393 20.8955 116.291 21.0704 116.293 21.2853C116.291 21.4699 116.357 21.6201 116.493 21.7356C116.631 21.8512 116.859 21.9463 117.176 22.0207L118.242 22.2523C118.834 22.3815 119.273 22.587 119.56 22.8679C119.851 23.1487 119.997 23.5168 120 23.971C119.997 24.3705 119.882 24.7231 119.654 25.0291C119.429 25.3321 119.116 25.5691 118.714 25.7397C118.313 25.9104 117.852 25.9961 117.331 25.9961C116.566 25.9961 115.95 25.8336 115.484 25.5082C115.017 25.1804 114.739 24.7247 114.65 24.1405L116.086 24.0001C116.151 24.2867 116.289 24.5028 116.501 24.649C116.713 24.7949 116.988 24.8678 117.327 24.8678C117.677 24.8678 117.958 24.7949 118.169 24.649C118.383 24.5028 118.49 24.3224 118.49 24.1075C118.49 23.9256 118.421 23.7755 118.283 23.6572C118.147 23.5385 117.936 23.4477 117.648 23.3845L116.582 23.1572C115.983 23.0304 115.539 22.8171 115.252 22.5164C114.964 22.2135 114.822 21.8307 114.825 21.3679C114.822 20.9766 114.926 20.6379 115.138 20.3513C115.352 20.0619 115.649 19.8389 116.029 19.6818C116.411 19.522 116.852 19.4421 117.351 19.4421C118.084 19.4421 118.66 19.6007 119.08 19.9173C119.504 20.2342 119.765 20.6628 119.866 21.2027Z" fill="white"/>
</g>
</svg>
