<svg width="56" height="32" viewBox="0 0 56 32" fill="none" xmlns="http://www.w3.org/2000/svg">
<g id="Frame">
<g id="Vector">
<path d="M40.8197 13.0787C39.5565 7.16212 33.9321 2.7998 27.1705 2.7998C21.8021 2.7998 17.1282 5.53315 14.7969 9.6524C9.2056 10.2028 4.97461 14.6081 4.97461 19.9313C4.97461 25.6329 9.91466 30.2102 16.0726 30.2102H40.1819C45.3088 30.2102 49.494 26.4506 49.494 21.7035C49.494 17.1629 45.64 13.3969 40.8197 13.0787ZM40.1819 26.7839H16.0726C11.9766 26.7839 8.67393 23.7237 8.67393 19.9313C8.67393 16.1388 11.9766 13.0787 16.0726 13.0787C20.1685 13.0787 23.4712 16.1388 23.4712 19.9313H27.1705C27.1705 15.1842 23.7155 11.2108 19.0065 10.0068C20.8734 7.69351 23.8268 6.2261 27.1705 6.2261C32.8083 6.2261 37.3755 10.458 37.3755 15.678V16.505H40.1819C43.2562 16.505 45.7947 18.857 45.7947 21.7035C45.7947 24.55 43.2562 26.7839 40.1819 26.7839Z" fill="#0F32B1"/>
</g>
<g id="Vector_2">
<path d="M22.1959 12.1335C22.1955 12.1335 22.1964 12.1335 22.1959 12.1335C22.0385 12.1335 21.925 12.1484 21.8132 12.2516C21.7002 12.356 21.6856 12.4581 21.6856 12.6061V20.8765C21.6856 21.1797 21.867 21.4664 22.1959 21.4672C23.5822 21.4703 25.9512 21.6868 27.5535 23.2394V14.6146C27.5535 14.5118 27.4795 14.4582 27.426 14.3783C26.1109 12.4174 23.5853 12.1365 22.1959 12.1335Z" fill="#0F32B1"/>
</g>
<g id="Vector_3">
<path d="M34.3151 20.8764V12.6061C34.3151 12.4581 34.1736 12.356 34.0611 12.2516C33.9497 12.1484 33.8365 12.1335 33.6799 12.1335C33.6794 12.1335 33.6804 12.1335 33.6799 12.1335C32.2961 12.1365 29.7809 12.4174 28.471 14.3783C28.4176 14.4582 28.471 14.5118 28.471 14.6146V23.2394C30.0668 21.6868 32.2992 21.4704 33.6799 21.4672C34.0073 21.4665 34.3151 21.1797 34.3151 20.8764Z" fill="#0F32B1"/>
</g>
<g id="Vector_4">
<path d="M35.718 14.0239H35.3353V20.8678C35.3353 21.6411 34.6419 22.2819 33.8045 22.2838C32.6285 22.2864 30.713 22.498 29.3398 23.6998C31.7147 23.1621 34.1637 23.5172 35.5904 23.8178C35.7686 23.8553 35.958 23.8051 36.1007 23.6998C36.2428 23.5949 36.3558 23.3961 36.3558 23.2278V14.4959C36.3558 14.1922 36.0463 14.0239 35.718 14.0239Z" fill="#0F32B1"/>
</g>
<g id="Vector_5">
<path d="M20.6655 20.8678V14.0239H20.1553C19.8269 14.0239 19.6451 14.1922 19.6451 14.4959V23.2277C19.6451 23.3962 19.6305 23.5949 19.7726 23.6997C19.9153 23.8049 20.1043 23.8554 20.2829 23.8177C21.7095 23.5171 24.286 23.162 26.6606 23.6997C25.2876 22.498 23.2445 22.2863 22.0686 22.2838C21.2313 22.2818 20.6655 21.641 20.6655 20.8678Z" fill="#0F32B1"/>
</g>
<g id="Vector_6">
<path fill-rule="evenodd" clip-rule="evenodd" d="M44.2649 6.81683L44.7751 8.35276H46.561L45.1578 9.29795L45.6681 10.8339L44.2649 9.88869L42.7341 10.8339L43.3719 9.29795L41.9688 8.35276H43.6271L44.2649 6.81683ZM48.9847 1.38202L49.3674 2.3272H50.643L49.6225 3.03609L50.0052 4.09943L48.9847 3.39054L48.0918 4.09943L48.4744 3.03609L47.4539 2.3272H48.602L48.9847 1.38202ZM44.2649 1.61832L44.6476 2.5635H45.6681L44.7751 3.15424L45.1578 4.21757L44.2649 3.62683L43.3719 4.21757L43.7546 3.15424L42.8617 2.5635H43.8822L44.2649 1.61832ZM50.5154 5.39906L50.8981 6.46239H52.0462L51.0257 7.17128L51.4084 8.23461L50.5154 7.52572L49.4949 8.23461L49.8776 7.17128L48.8571 6.46239H50.1328L50.5154 5.39906ZM48.2193 8.35276L48.4744 9.41609H49.6225L48.7296 10.0068L49.1123 10.952L48.2193 10.3613L47.3264 10.952L47.5815 10.0068L46.6886 9.41609H47.8366L48.2193 8.35276ZM46.8161 4.09943L46.3059 5.28091H44.9027L46.0508 5.9898L45.6681 7.28943L46.8161 6.46239L47.8366 7.28943L47.4539 5.9898L48.602 5.28091H47.1988L46.8161 4.09943Z" fill="#0F32B1"/>
</g>
</g>
</svg>
