<svg width="120" height="27" viewBox="0 0 120 27" fill="none" xmlns="http://www.w3.org/2000/svg">
<g id="Group 1">
<path id="Vector" d="M9.8773 5.05961H7.52989C7.48703 4.74978 7.3995 4.4746 7.26729 4.23406C7.13509 3.98966 6.96538 3.78221 6.75817 3.61094C6.55092 3.43929 6.31156 3.30843 6.04001 3.21722C5.77202 3.126 5.48086 3.08058 5.16642 3.08058C4.59832 3.08058 4.10349 3.22453 3.68189 3.51242C3.26026 3.79645 2.93336 4.21211 2.70112 4.75864C2.46888 5.30169 2.35276 5.96137 2.35276 6.73805C2.35276 7.53589 2.46888 8.20673 2.70112 8.74979C2.93693 9.29285 3.26562 9.70274 3.68725 9.97985C4.10885 10.257 4.59654 10.3951 5.15034 10.3951C5.4612 10.3951 5.74881 10.3532 6.01319 10.2697C6.28118 10.1858 6.51877 10.0637 6.72602 9.90325C6.93323 9.7393 7.10471 9.5407 7.2405 9.30747C7.37984 9.07423 7.47632 8.8079 7.52989 8.50924L9.8773 8.52002C9.81655 9.03383 9.66473 9.52954 9.42175 10.0072C9.18239 10.481 8.85904 10.9055 8.45171 11.2811C8.04796 11.6525 7.56562 11.9477 7.00469 12.1667C6.44731 12.3815 5.81669 12.4892 5.11284 12.4892C4.13386 12.4892 3.25849 12.2633 2.48674 11.8111C1.71857 11.3592 1.11117 10.7049 0.66456 9.8486C0.22152 8.99226 0 7.95502 0 6.73805C0 5.51684 0.225093 4.47807 0.675279 3.62172C1.12546 2.76537 1.73643 2.11262 2.50818 1.66463C3.27992 1.2124 4.14816 0.986484 5.11284 0.986484C5.74881 0.986484 6.33834 1.0777 6.88143 1.26013C7.42806 1.44217 7.91221 1.70812 8.33381 2.05797C8.7554 2.40436 9.0984 2.82888 9.36281 3.33191C9.63077 3.83494 9.80229 4.41071 9.8773 5.05961ZM13.7816 1.13966V12.336H11.4985V1.13966H13.7816ZM19.3299 12.5C18.4974 12.5 17.7775 12.3195 17.1701 11.9589C16.5662 11.5944 16.1 11.0879 15.7713 10.439C15.4426 9.78664 15.2782 9.03036 15.2782 8.17016C15.2782 7.30266 15.4426 6.54484 15.7713 5.89594C16.1 5.24358 16.5662 4.73708 17.1701 4.37607C17.7775 4.01159 18.4974 3.82955 19.3299 3.82955C20.1624 3.82955 20.8805 4.01159 21.4843 4.37607C22.0918 4.73708 22.5598 5.24358 22.8885 5.89594C23.2172 6.54484 23.3816 7.30266 23.3816 8.17016C23.3816 9.03036 23.2172 9.78664 22.8885 10.439C22.5598 11.0879 22.0918 11.5944 21.4843 11.9589C20.8805 12.3195 20.1624 12.5 19.3299 12.5ZM19.3406 10.6961C19.7193 10.6961 20.0356 10.5868 20.2892 10.3678C20.5429 10.1457 20.734 9.84321 20.8627 9.46026C20.9949 9.0777 21.061 8.64202 21.061 8.154C21.061 7.6656 20.9949 7.22992 20.8627 6.84735C20.734 6.4644 20.5429 6.16189 20.2892 5.93982C20.0356 5.71736 19.7193 5.60613 19.3406 5.60613C18.9583 5.60613 18.6368 5.71736 18.3759 5.93982C18.1187 6.16189 17.924 6.4644 17.7918 6.84735C17.6631 7.22992 17.5988 7.6656 17.5988 8.154C17.5988 8.64202 17.6631 9.0777 17.7918 9.46026C17.924 9.84321 18.1187 10.1457 18.3759 10.3678C18.6368 10.5868 18.9583 10.6961 19.3406 10.6961ZM30.1451 8.76056V3.93886H32.4282V12.336H30.2362V10.8108H30.1505C29.9646 11.3027 29.6556 11.6983 29.2233 11.997C28.7945 12.296 28.2711 12.4453 27.653 12.4453C27.1027 12.4453 26.6186 12.318 26.2006 12.0628C25.7826 11.8076 25.4556 11.4451 25.2198 10.9747C24.9876 10.5044 24.8697 9.94136 24.8661 9.28553V3.93886H27.1492V8.86987C27.1528 9.36559 27.2832 9.75739 27.5404 10.0453C27.7977 10.3332 28.1425 10.4771 28.5748 10.4771C28.8499 10.4771 29.1071 10.4136 29.3465 10.2858C29.5859 10.1546 29.7789 9.96137 29.9254 9.70658C30.0754 9.45141 30.1486 9.1362 30.1451 8.76056ZM37.2877 12.4727C36.6625 12.4727 36.0962 12.3087 35.5888 11.9808C35.0851 11.649 34.6849 11.1626 34.3884 10.521C34.0954 9.87593 33.9489 9.08501 33.9489 8.14823C33.9489 7.18604 34.1007 6.38627 34.4044 5.74854C34.7081 5.10695 35.1119 4.62778 35.6157 4.31064C36.123 3.98966 36.6786 3.82955 37.2824 3.82955C37.7435 3.82955 38.1276 3.9096 38.4347 4.0701C38.7456 4.22674 38.9957 4.42341 39.1852 4.6605C39.3779 4.89373 39.5243 5.12311 39.6243 5.34942H39.6941V1.13966H41.9719V12.336H39.7209V10.9913H39.6243C39.5172 11.2245 39.3655 11.4558 39.1689 11.6856C38.9761 11.9115 38.7241 12.099 38.4132 12.2487C38.1061 12.398 37.7307 12.4727 37.2877 12.4727ZM38.0114 10.6195C38.3792 10.6195 38.6901 10.5175 38.9437 10.3131C39.201 10.1057 39.3976 9.81588 39.5334 9.4441C39.6726 9.07231 39.7424 8.63663 39.7424 8.13745C39.7424 7.63827 39.6745 7.20452 39.5387 6.83619C39.4028 6.46825 39.2063 6.18383 38.9493 5.98331C38.692 5.78279 38.3792 5.68272 38.0114 5.68272C37.636 5.68272 37.3198 5.78664 37.0628 5.99447C36.8054 6.20192 36.6107 6.49019 36.4785 6.85813C36.3463 7.22607 36.2802 7.65251 36.2802 8.13745C36.2802 8.62586 36.3463 9.05769 36.4785 9.43294C36.6143 9.80473 36.809 10.0965 37.0628 10.3078C37.3198 10.5156 37.636 10.6195 38.0114 10.6195ZM47.385 12.336V1.13966H54.7808V3.09136H49.7054V5.75931H54.4001V7.71101H49.7054V10.3843H54.8023V12.336H47.385ZM59.6163 12.4727C58.9911 12.4727 58.4248 12.3087 57.9173 11.9808C57.4136 11.649 57.0133 11.1626 56.7167 10.521C56.424 9.87593 56.2772 9.08501 56.2772 8.14823C56.2772 7.18604 56.4292 6.38627 56.733 5.74854C57.0367 5.10695 57.4404 4.62778 57.9441 4.31064C58.4516 3.98966 59.0069 3.82955 59.611 3.82955C60.0717 3.82955 60.4558 3.9096 60.7633 4.0701C61.0738 4.22674 61.3239 4.42341 61.5133 4.6605C61.7065 4.89373 61.8529 5.12311 61.9529 5.34942H62.0227V1.13966H64.3005V12.336H62.0495V10.9913H61.9529C61.8457 11.2245 61.6937 11.4558 61.4975 11.6856C61.3043 11.9115 61.0527 12.099 60.7418 12.2487C60.4343 12.398 60.0592 12.4727 59.6163 12.4727ZM60.3396 10.6195C60.7078 10.6195 61.0187 10.5175 61.2723 10.3131C61.5296 10.1057 61.7261 9.81588 61.862 9.4441C62.0012 9.07231 62.071 8.63663 62.071 8.13745C62.071 7.63827 62.0031 7.20452 61.8672 6.83619C61.7314 6.46825 61.5348 6.18383 61.2775 5.98331C61.0202 5.78279 60.7078 5.68272 60.3396 5.68272C59.9645 5.68272 59.6483 5.78664 59.391 5.99447C59.1337 6.20192 58.939 6.49019 58.807 6.85813C58.6749 7.22607 58.6085 7.65251 58.6085 8.13745C58.6085 8.62586 58.6749 9.05769 58.807 9.43294C58.9428 9.80473 59.1375 10.0965 59.391 10.3078C59.6483 10.5156 59.9645 10.6195 60.3396 10.6195ZM71.4563 8.76056V3.93886H73.7393V12.336H71.5476V10.8108H71.4616C71.276 11.3027 70.9669 11.6983 70.5346 11.997C70.106 12.296 69.5823 12.4453 68.9642 12.4453C68.4141 12.4453 67.9301 12.318 67.512 12.0628C67.094 11.8076 66.7669 11.4451 66.5311 10.9747C66.299 10.5044 66.1809 9.94136 66.1775 9.28553V3.93886H68.4606V8.86987C68.464 9.36559 68.5945 9.75739 68.8518 10.0453C69.1091 10.3332 69.4536 10.4771 69.886 10.4771C70.161 10.4771 70.4184 10.4136 70.6579 10.2858C70.8971 10.1546 71.0903 9.96137 71.2367 9.70658C71.3869 9.45141 71.4601 9.1362 71.4563 8.76056ZM79.2853 12.5C78.442 12.5 77.7165 12.318 77.109 11.9535C76.5053 11.5852 76.0409 11.0748 75.7156 10.4225C75.3942 9.77009 75.2335 9.01958 75.2335 8.17016C75.2335 7.30997 75.3961 6.55562 75.7213 5.90672C76.0499 5.25436 76.5163 4.74594 77.1199 4.38146C77.7236 4.01352 78.442 3.82955 79.2743 3.82955C79.9927 3.82955 80.6213 3.96233 81.1608 4.22866C81.7004 4.49461 82.1275 4.86833 82.4418 5.34942C82.7561 5.83051 82.9296 6.39512 82.9617 7.04402H80.8073C80.7466 6.62489 80.5858 6.28774 80.3247 6.03257C80.0674 5.77393 79.7301 5.64462 79.3121 5.64462C78.9582 5.64462 78.6491 5.74276 78.3847 5.93982C78.1239 6.13302 77.9202 6.41514 77.7738 6.78693C77.6274 7.15872 77.5538 7.60902 77.5538 8.13745C77.5538 8.6732 77.6255 9.12889 77.7685 9.50414C77.9149 9.87939 78.1202 10.1657 78.3847 10.3624C78.6491 10.5595 78.9582 10.6576 79.3121 10.6576C79.5728 10.6576 79.8067 10.603 80.0138 10.4937C80.2247 10.3843 80.3979 10.2258 80.5338 10.0179C80.6734 9.80665 80.7643 9.55341 80.8073 9.25821H82.9617C82.9258 9.89979 82.7545 10.4644 82.447 10.9528C82.1433 11.4378 81.7238 11.8168 81.1876 12.0901C80.6518 12.3634 80.0176 12.5 79.2853 12.5ZM86.7709 12.4946C86.2457 12.4946 85.7775 12.4015 85.3666 12.216C84.9557 12.0262 84.6305 11.7476 84.3913 11.3793C84.1554 11.0075 84.0374 10.5448 84.0374 9.99062C84.0374 9.52416 84.1215 9.13235 84.2894 8.81522C84.4573 8.49808 84.6859 8.24329 84.9753 8.05008C85.2647 7.85688 85.5933 7.71101 85.9616 7.61248C86.3332 7.51434 86.7226 7.44506 87.1297 7.40504C87.6085 7.35385 87.9945 7.3065 88.2876 7.26263C88.5804 7.21529 88.7932 7.14601 88.9253 7.0548C89.0573 6.96397 89.1237 6.82888 89.1237 6.6503V6.61758C89.1237 6.27119 89.0162 6.00332 88.8019 5.81396C88.5914 5.62461 88.291 5.52954 87.9016 5.52954C87.4908 5.52954 87.1637 5.62268 86.9207 5.80857C86.6781 5.99062 86.517 6.22039 86.4385 6.4975L84.3267 6.32238C84.4343 5.81204 84.6448 5.37097 84.9595 4.99957C85.2738 4.62393 85.6794 4.33604 86.1759 4.13552C86.6762 3.93154 87.255 3.82955 87.9122 3.82955C88.3695 3.82955 88.8072 3.88421 89.2252 3.99351C89.647 4.10281 90.0202 4.27216 90.3454 4.50193C90.674 4.73131 90.9333 5.0269 91.1227 5.38752C91.3121 5.74469 91.4068 6.17305 91.4068 6.67223V12.336H89.2414V11.1714H89.1773C89.0449 11.4339 88.8679 11.6656 88.6464 11.8657C88.425 12.0628 88.159 12.2175 87.8481 12.3307C87.5372 12.44 87.178 12.4946 86.7709 12.4946ZM87.4248 10.8874C87.7605 10.8874 88.0571 10.82 88.3144 10.6849C88.5714 10.5464 88.7736 10.3605 88.92 10.1273C89.0664 9.89402 89.1396 9.62999 89.1396 9.33479V8.44343C89.0683 8.49077 88.9698 8.53464 88.8449 8.57467C88.7234 8.61123 88.5857 8.64587 88.4321 8.67858C88.2786 8.70783 88.125 8.73516 87.9715 8.76056C87.8175 8.7825 87.6783 8.80251 87.5534 8.8206C87.2851 8.86101 87.0512 8.92452 86.8512 9.01227C86.6513 9.09964 86.4958 9.21818 86.3849 9.36751C86.274 9.51338 86.2189 9.69542 86.2189 9.91403C86.2189 10.2312 86.3313 10.4736 86.5566 10.6414C86.7852 10.8054 87.0746 10.8874 87.4248 10.8874ZM97.5564 3.93886V5.68811H92.599V3.93886H97.5564ZM93.7245 1.92712H96.0075V9.75546C96.0075 9.97061 96.04 10.1384 96.1041 10.2585C96.1683 10.3751 96.2577 10.4571 96.372 10.5044C96.4901 10.5522 96.6259 10.5756 96.7795 10.5756C96.8867 10.5756 96.9938 10.5664 97.101 10.5483C97.2081 10.5264 97.2904 10.5102 97.3473 10.499L97.7065 12.2321C97.5922 12.2687 97.4315 12.3106 97.2243 12.358C97.0168 12.4088 96.7652 12.44 96.4686 12.4507C95.9185 12.4727 95.4359 12.398 95.0217 12.2267C94.6108 12.0555 94.2908 11.7895 94.0622 11.4285C93.8335 11.0679 93.7211 10.6122 93.7245 10.0618V1.92712ZM99.0437 12.336V3.93886H101.327V12.336H99.0437ZM100.191 2.8562C99.8511 2.8562 99.5602 2.74151 99.3172 2.51174C99.0776 2.27851 98.958 1.99986 98.958 1.67541C98.958 1.35481 99.0776 1.07963 99.3172 0.849855C99.5602 0.616622 99.8511 0.5 100.191 0.5C100.53 0.5 100.82 0.616622 101.059 0.849855C101.302 1.07963 101.423 1.35481 101.423 1.67541C101.423 1.99986 101.302 2.27851 101.059 2.51174C100.82 2.74151 100.53 2.8562 100.191 2.8562ZM106.875 12.5C106.043 12.5 105.323 12.3195 104.715 11.9589C104.112 11.5944 103.645 11.0879 103.317 10.439C102.988 9.78664 102.823 9.03036 102.823 8.17016C102.823 7.30266 102.988 6.54484 103.317 5.89594C103.645 5.24358 104.112 4.73708 104.715 4.37607C105.323 4.01159 106.043 3.82955 106.875 3.82955C107.708 3.82955 108.426 4.01159 109.03 4.37607C109.637 4.73708 110.105 5.24358 110.434 5.89594C110.763 6.54484 110.927 7.30266 110.927 8.17016C110.927 9.03036 110.763 9.78664 110.434 10.439C110.105 11.0879 109.637 11.5944 109.03 11.9589C108.426 12.3195 107.708 12.5 106.875 12.5ZM106.886 10.6961C107.265 10.6961 107.581 10.5868 107.834 10.3678C108.088 10.1457 108.279 9.84321 108.408 9.46026C108.54 9.0777 108.606 8.64202 108.606 8.154C108.606 7.6656 108.54 7.22992 108.408 6.84735C108.279 6.4644 108.088 6.16189 107.834 5.93982C107.581 5.71736 107.265 5.60613 106.886 5.60613C106.504 5.60613 106.182 5.71736 105.921 5.93982C105.664 6.16189 105.469 6.4644 105.337 6.84735C105.208 7.22992 105.144 7.6656 105.144 8.154C105.144 8.64202 105.208 9.0777 105.337 9.46026C105.469 9.84321 105.664 10.1457 105.921 10.3678C106.182 10.5868 106.504 10.6961 106.886 10.6961ZM114.694 7.48124V12.336H112.411V3.93886H114.587V5.42024H114.684C114.866 4.93183 115.171 4.5458 115.6 4.26138C116.029 3.9735 116.549 3.82955 117.16 3.82955C117.731 3.82955 118.23 3.95694 118.655 4.21212C119.08 4.46729 119.411 4.83176 119.646 5.30555C119.882 5.77586 120 6.33701 120 6.98937V12.336H117.717V7.40504C117.721 6.89084 117.592 6.49019 117.331 6.20192C117.07 5.91057 116.711 5.7647 116.254 5.7647C115.947 5.7647 115.675 5.83205 115.439 5.96714C115.207 6.10185 115.025 6.29852 114.893 6.55754C114.764 6.81271 114.698 7.12061 114.694 7.48124Z" fill="#0F32B1"/>
<path id="Vector_2" d="M2.74626 26.4961C2.17666 26.4961 1.68709 26.3914 1.27752 26.1819C0.867958 25.9725 0.551965 25.6901 0.329554 25.3348C0.10985 24.9768 0 24.573 0 24.1242C0 23.7852 0.0678103 23.485 0.203427 23.2232C0.341759 22.9614 0.531621 22.7189 0.773025 22.4959C1.01714 22.2729 1.29922 22.051 1.61928 21.8307L3.09616 20.8102C3.31315 20.6667 3.47726 20.5154 3.58847 20.3556C3.70239 20.1958 3.75933 20.0084 3.75933 19.7935C3.75933 19.6116 3.68341 19.4394 3.53149 19.2769C3.38232 19.1144 3.17617 19.0333 2.91307 19.0333C2.73679 19.0333 2.58082 19.076 2.44521 19.1613C2.31231 19.2439 2.20786 19.3525 2.13192 19.4875C2.05868 19.6225 2.02207 19.766 2.02207 19.9173C2.02207 20.1019 2.07225 20.2893 2.1726 20.4793C2.27568 20.6694 2.40858 20.8664 2.57131 21.0704C2.73679 21.2741 2.91307 21.4905 3.10024 21.719L7.01011 26.372H5.41525L2.16854 22.5952C1.92713 22.3086 1.69387 22.0262 1.46874 21.7481C1.24633 21.47 1.06325 21.1806 0.919491 20.8804C0.778448 20.5771 0.707926 20.2493 0.707926 19.8967C0.707926 19.4972 0.798792 19.1407 0.980519 18.8266C1.16225 18.5097 1.41586 18.2602 1.74134 18.0787C2.06953 17.8968 2.45334 17.8056 2.89272 17.8056C3.33213 17.8056 3.70915 17.8941 4.0238 18.0702C4.33844 18.2467 4.58118 18.481 4.75208 18.7726C4.92294 19.0647 5.00837 19.3832 5.00837 19.7272C5.00837 20.1267 4.91072 20.4847 4.71546 20.8016C4.52015 21.1158 4.24893 21.4009 3.90174 21.6569L2.21737 22.909C1.9407 23.113 1.74269 23.3198 1.62335 23.5288C1.50401 23.7356 1.44433 23.9121 1.44433 24.0579C1.44433 24.2809 1.49994 24.4834 1.61114 24.6653C1.72235 24.8472 1.87831 24.9931 2.07903 25.1032C2.28244 25.2107 2.51979 25.2646 2.79102 25.2646C3.0894 25.2646 3.38369 25.1971 3.6739 25.0621C3.9641 24.9244 4.22857 24.7285 4.46726 24.4753C4.70595 24.222 4.89583 23.9187 5.03686 23.5661C5.1779 23.2108 5.24844 22.8171 5.24844 22.3842H6.51375C6.51375 22.9187 6.45543 23.3845 6.3388 23.781C6.22217 24.175 6.07162 24.5082 5.8872 24.7809C5.70275 25.0509 5.50744 25.2673 5.30133 25.4298C5.23622 25.4768 5.17385 25.5233 5.11416 25.5703C5.05451 25.6172 4.99211 25.6641 4.92699 25.7107C4.63407 25.9806 4.29097 26.1792 3.89765 26.3061C3.50708 26.4325 3.12327 26.4961 2.74626 26.4961ZM16.9162 17.9092L19.0847 24.5703H19.1701L21.3346 17.9092H22.9946L20.0571 26.372H18.1937L15.2603 17.9092H16.9162ZM26.5475 26.372V20.0247H28.0203V26.372H26.5475ZM27.288 19.1241C27.0547 19.1241 26.854 19.0457 26.6858 18.8886C26.5177 18.7288 26.4336 18.5372 26.4336 18.3142C26.4336 18.088 26.5177 17.8968 26.6858 17.7397C26.854 17.5799 27.0547 17.5 27.288 17.5C27.524 17.5 27.7247 17.5799 27.8901 17.7397C28.0583 17.8968 28.1424 18.088 28.1424 18.3142C28.1424 18.5372 28.0583 18.7288 27.8901 18.8886C27.7247 19.0457 27.524 19.1241 27.288 19.1241ZM36.9946 21.7027L35.652 21.8513C35.614 21.7136 35.5475 21.584 35.4526 21.463C35.3604 21.3416 35.2356 21.2438 35.0783 21.1694C34.921 21.0953 34.7284 21.058 34.5006 21.058C34.1941 21.058 33.9364 21.1255 33.7275 21.2605C33.5214 21.3955 33.4197 21.5704 33.4224 21.7853C33.4197 21.9699 33.4861 22.1201 33.6218 22.2356C33.7601 22.3512 33.9879 22.4463 34.3053 22.5207L35.3713 22.7523C35.9625 22.8815 36.402 23.087 36.6895 23.3679C36.9797 23.6487 37.126 24.0168 37.129 24.471C37.126 24.8705 37.011 25.2231 36.783 25.5291C36.5581 25.8321 36.2446 26.0691 35.8432 26.2397C35.4418 26.4104 34.9807 26.4961 34.4599 26.4961C33.695 26.4961 33.0793 26.3336 32.6128 26.0082C32.1462 25.6804 31.8682 25.2247 31.7787 24.6405L33.2149 24.5001C33.28 24.7867 33.4184 25.0028 33.6299 25.149C33.8415 25.2949 34.1168 25.3678 34.4558 25.3678C34.8057 25.3678 35.0865 25.2949 35.298 25.149C35.5123 25.0028 35.6194 24.8224 35.6194 24.6075C35.6194 24.4256 35.5502 24.2755 35.4119 24.1572C35.2763 24.0385 35.0647 23.9477 34.7772 23.8845L33.7113 23.6572C33.1119 23.5304 32.6684 23.3171 32.3809 23.0164C32.0934 22.7135 31.9509 22.3307 31.9537 21.8679C31.9509 21.4766 32.0554 21.1379 32.2669 20.8513C32.4812 20.5619 32.7782 20.3389 33.1579 20.1818C33.5404 20.022 33.9812 19.9421 34.4802 19.9421C35.2126 19.9421 35.7889 20.1007 36.2094 20.4173C36.6326 20.7342 36.8942 21.1628 36.9946 21.7027ZM42.662 26.5C42.266 26.5 41.9097 26.4286 41.5923 26.2851C41.2776 26.1393 41.0279 25.9244 40.8434 25.6405C40.6616 25.3569 40.5711 25.007 40.5711 24.5909C40.5711 24.2328 40.636 23.9369 40.7663 23.7026C40.8965 23.4683 41.0741 23.281 41.2994 23.1406C41.5243 23.0002 41.7779 22.8939 42.0601 22.8225C42.3446 22.748 42.6391 22.6941 42.9431 22.6612C43.3089 22.6228 43.6061 22.5882 43.8341 22.558C44.0617 22.525 44.227 22.4753 44.3301 22.409C44.4359 22.3404 44.489 22.2341 44.489 22.091V22.0661C44.489 21.7551 44.3981 21.5138 44.2163 21.3431C44.0346 21.1721 43.773 21.0867 43.4312 21.0867C43.0703 21.0867 42.7842 21.1666 42.5726 21.3264C42.3637 21.4863 42.2228 21.6752 42.1495 21.8928L40.7743 21.6942C40.8827 21.3086 41.0618 20.9863 41.3112 20.7272C41.561 20.4657 41.8661 20.2699 42.227 20.1407C42.5875 20.0084 42.9862 19.9421 43.4231 19.9421C43.7241 19.9421 44.0239 19.9782 44.3221 20.0495C44.6204 20.1213 44.8931 20.2396 45.1398 20.4048C45.3869 20.5678 45.5847 20.7892 45.734 21.0704C45.8856 21.3513 45.9616 21.7027 45.9616 22.1239V26.372H44.5459V25.5001H44.497C44.4077 25.6765 44.2813 25.8418 44.1186 25.9962C43.9586 26.1474 43.7565 26.27 43.5125 26.3639C43.2711 26.4546 42.9878 26.5 42.662 26.5ZM43.0447 25.4008C43.3403 25.4008 43.5965 25.3418 43.8134 25.2231C44.0307 25.1021 44.1972 24.9423 44.3141 24.7441C44.4333 24.5455 44.4928 24.3294 44.4928 24.0951V23.3473C44.447 23.3857 44.3683 23.4214 44.2572 23.4548C44.1484 23.4877 44.0265 23.5164 43.891 23.5412C43.7554 23.5661 43.621 23.5882 43.4881 23.6076C43.3552 23.627 43.2398 23.6433 43.1424 23.6572C42.9225 23.6875 42.7258 23.7371 42.5524 23.8058C42.3786 23.8748 42.2419 23.971 42.1415 24.0951C42.041 24.2162 41.991 24.3733 41.991 24.566C41.991 24.8418 42.0899 25.0497 42.2877 25.1901C42.486 25.3305 42.738 25.4008 43.0447 25.4008ZM59.919 20.2357C59.8812 19.8746 59.7211 19.5938 59.4389 19.3925C59.1597 19.1915 58.7962 19.0911 58.3486 19.0911C58.0339 19.0911 57.7643 19.1392 57.539 19.2358C57.314 19.332 57.1418 19.4627 57.0222 19.6283C56.9031 19.7935 56.842 19.9821 56.8393 20.1942C56.8393 20.3707 56.8786 20.5235 56.9573 20.6531C57.0387 20.7822 57.1483 20.8928 57.2869 20.9836C57.4252 21.0716 57.5783 21.1461 57.7463 21.2066C57.9147 21.2671 58.0843 21.3183 58.255 21.3594L59.036 21.558C59.3507 21.6325 59.6532 21.7329 59.9434 21.8594C60.2363 21.9862 60.4983 22.146 60.7286 22.3388C60.9619 22.5316 61.1464 22.7647 61.282 23.0374C61.4175 23.3101 61.4855 23.6297 61.4855 23.9958C61.4855 24.4919 61.3606 24.9283 61.1113 25.3057C60.8615 25.6804 60.501 25.974 60.0289 26.1862C59.5596 26.3953 58.9913 26.5 58.3241 26.5C57.6761 26.5 57.1131 26.398 56.6358 26.1944C56.1611 25.9903 55.7895 25.6928 55.521 25.3018C55.2552 24.9105 55.1112 24.4341 55.0898 23.8721H56.5747C56.5964 24.1669 56.6858 24.412 56.8431 24.6075C57.0005 24.803 57.2052 24.9493 57.4576 25.0454C57.7127 25.142 57.9972 25.1901 58.3119 25.1901C58.6404 25.1901 58.9275 25.1405 59.1746 25.0416C59.424 24.9396 59.6192 24.7991 59.7605 24.6199C59.9014 24.438 59.9732 24.2259 59.9759 23.9834C59.9732 23.7631 59.9094 23.5812 59.7849 23.4381C59.66 23.2922 59.4851 23.1708 59.2598 23.0746C59.0375 22.9753 58.7771 22.8873 58.4788 22.8101L57.5309 22.5622C56.8447 22.383 56.302 22.1115 55.9033 21.7481C55.5072 21.3815 55.3094 20.8955 55.3094 20.2893C55.3094 19.7908 55.4423 19.3541 55.7081 18.9794C55.9766 18.6047 56.3413 18.3142 56.8027 18.1074C57.2636 17.898 57.7857 17.7936 58.3688 17.7936C58.9604 17.7936 59.4782 17.898 59.9232 18.1074C60.3708 18.3142 60.7221 18.602 60.9768 18.9712C61.2319 19.3374 61.3633 19.759 61.3717 20.2357H59.919ZM68.0531 26.4961C67.4268 26.4961 66.8856 26.3639 66.43 26.0993C65.9771 25.8321 65.6284 25.4547 65.3843 24.9671C65.1399 24.4768 65.0181 23.8997 65.0181 23.2356C65.0181 22.5828 65.1399 22.0099 65.3843 21.5165C65.6311 21.0208 65.9755 20.6352 66.4178 20.3595C66.8596 20.0813 67.379 19.9421 67.9759 19.9421C68.3609 19.9421 68.7244 20.0057 69.0663 20.1322C69.4107 20.2563 69.7143 20.4491 69.9775 20.7109C70.2433 20.9727 70.4522 21.3059 70.6042 21.7108C70.7562 22.1131 70.8322 22.5925 70.8322 23.1487V23.6076H65.7097V22.5991H69.4203C69.4176 22.3128 69.3565 22.058 69.237 21.835C69.1178 21.6088 68.9509 21.4312 68.7367 21.3016C68.5251 21.1721 68.2784 21.1077 67.9962 21.1077C67.6952 21.1077 67.4306 21.1818 67.203 21.3307C66.975 21.4766 66.7974 21.6693 66.6698 21.909C66.5449 22.146 66.4815 22.4063 66.4785 22.6902V23.5703C66.4785 23.9396 66.5449 24.2561 66.6778 24.5206C66.8107 24.7825 66.9967 24.9834 67.2354 25.1242C67.4741 25.2619 67.7537 25.3305 68.0737 25.3305C68.2879 25.3305 68.4816 25.3003 68.6553 25.2398C68.8291 25.1766 68.9796 25.0842 69.1071 24.9628C69.2343 24.8418 69.3305 24.6917 69.3958 24.5125L70.7711 24.6696C70.6844 25.0385 70.5186 25.3608 70.2746 25.6366C70.0332 25.9093 69.7239 26.1214 69.3469 26.2727C68.97 26.4216 68.5388 26.4961 68.0531 26.4961ZM74.5985 26.372V20.0247H76.0268V21.0829H76.0917C76.2055 20.7163 76.401 20.4339 76.6775 20.2357C76.9571 20.0344 77.2756 19.934 77.6338 19.934C77.7152 19.934 77.8061 19.9382 77.9061 19.9464C78.0092 19.9518 78.0948 19.9615 78.1628 19.9755V21.3513C78.1001 21.3292 78.0012 21.3102 77.8656 21.2935C77.7327 21.2741 77.604 21.2644 77.4791 21.2644C77.2107 21.2644 76.9693 21.3237 76.7551 21.442C76.5435 21.558 76.3766 21.719 76.2544 21.9257C76.1326 22.1325 76.0715 22.3706 76.0715 22.6406V26.372H74.5985ZM87.4338 20.0247L85.2084 26.372H83.5808L81.3554 20.0247H82.9258L84.3621 24.7398H84.4271L85.8676 20.0247H87.4338ZM90.9736 26.372V20.0247H92.4462V26.372H90.9736ZM91.7141 19.1241C91.4808 19.1241 91.2803 19.0457 91.1119 18.8886C90.9438 18.7288 90.8598 18.5372 90.8598 18.3142C90.8598 18.088 90.9438 17.8968 91.1119 17.7397C91.2803 17.5799 91.4808 17.5 91.7141 17.5C91.9501 17.5 92.1506 17.5799 92.3164 17.7397C92.4844 17.8968 92.5684 18.088 92.5684 18.3142C92.5684 18.5372 92.4844 18.7288 92.3164 18.8886C92.1506 19.0457 91.9501 19.1241 91.7141 19.1241ZM99.2074 26.4961C98.5834 26.4961 98.0479 26.3569 97.6004 26.0788C97.1554 25.8003 96.8125 25.4163 96.5711 24.9256C96.3324 24.4326 96.2129 23.8651 96.2129 23.2232C96.2129 22.5785 96.3351 22.0099 96.5792 21.5165C96.8232 21.0208 97.1677 20.6352 97.6126 20.3595C98.0602 20.0813 98.5891 19.9421 99.1994 19.9421C99.7065 19.9421 100.155 20.0371 100.546 20.2272C100.939 20.4145 101.252 20.6806 101.486 21.0247C101.719 21.3664 101.852 21.7659 101.885 22.2232H100.477C100.42 21.9176 100.284 21.6627 100.07 21.4587C99.8585 21.252 99.5748 21.1488 99.2196 21.1488C98.9187 21.1488 98.654 21.2314 98.4264 21.3967C98.1984 21.5592 98.0208 21.7935 97.8933 22.0991C97.7684 22.4051 97.7061 22.7713 97.7061 23.1984C97.7061 23.6308 97.7684 24.0028 97.8933 24.3143C98.0182 24.6227 98.1931 24.8608 98.418 25.0292C98.646 25.1944 98.9129 25.277 99.2196 25.277C99.4365 25.277 99.6305 25.2355 99.8013 25.1529C99.975 25.0676 100.12 24.945 100.237 24.7852C100.353 24.6254 100.433 24.4311 100.477 24.2026H101.885C101.849 24.6518 101.719 25.0497 101.494 25.3969C101.269 25.7413 100.962 26.0113 100.575 26.2068C100.187 26.3995 99.731 26.4961 99.2074 26.4961ZM108.381 26.4961C107.754 26.4961 107.213 26.3639 106.758 26.0993C106.305 25.8321 105.956 25.4547 105.712 24.9671C105.468 24.4768 105.346 23.8997 105.346 23.2356C105.346 22.5828 105.468 22.0099 105.712 21.5165C105.959 21.0208 106.304 20.6352 106.745 20.3595C107.188 20.0813 107.707 19.9421 108.304 19.9421C108.689 19.9421 109.052 20.0057 109.394 20.1322C109.739 20.2563 110.042 20.4491 110.305 20.7109C110.571 20.9727 110.78 21.3059 110.932 21.7108C111.084 22.1131 111.16 22.5925 111.16 23.1487V23.6076H106.038V22.5991H109.748C109.745 22.3128 109.684 22.058 109.565 21.835C109.446 21.6088 109.279 21.4312 109.065 21.3016C108.853 21.1721 108.606 21.1077 108.324 21.1077C108.023 21.1077 107.759 21.1818 107.531 21.3307C107.303 21.4766 107.125 21.6693 106.998 21.909C106.873 22.146 106.809 22.4063 106.806 22.6902V23.5703C106.806 23.9396 106.873 24.2561 107.006 24.5206C107.139 24.7825 107.325 24.9834 107.563 25.1242C107.802 25.2619 108.081 25.3305 108.401 25.3305C108.616 25.3305 108.81 25.3003 108.983 25.2398C109.157 25.1766 109.307 25.0842 109.435 24.9628C109.562 24.8418 109.658 24.6917 109.724 24.5125L111.099 24.6696C111.012 25.0385 110.847 25.3608 110.603 25.6366C110.361 25.9093 110.052 26.1214 109.675 26.2727C109.298 26.4216 108.866 26.4961 108.381 26.4961ZM119.866 21.7027L118.523 21.8513C118.485 21.7136 118.419 21.584 118.323 21.463C118.231 21.3416 118.107 21.2438 117.949 21.1694C117.792 21.0953 117.599 21.058 117.372 21.058C117.065 21.058 116.807 21.1255 116.598 21.2605C116.393 21.3955 116.291 21.5704 116.293 21.7853C116.291 21.9699 116.357 22.1201 116.493 22.2356C116.631 22.3512 116.859 22.4463 117.176 22.5207L118.242 22.7523C118.834 22.8815 119.273 23.087 119.56 23.3679C119.851 23.6487 119.997 24.0168 120 24.471C119.997 24.8705 119.882 25.2231 119.654 25.5291C119.429 25.8321 119.116 26.0691 118.714 26.2397C118.313 26.4104 117.852 26.4961 117.331 26.4961C116.566 26.4961 115.95 26.3336 115.484 26.0082C115.017 25.6804 114.739 25.2247 114.65 24.6405L116.086 24.5001C116.151 24.7867 116.289 25.0028 116.501 25.149C116.713 25.2949 116.988 25.3678 117.327 25.3678C117.677 25.3678 117.958 25.2949 118.169 25.149C118.383 25.0028 118.49 24.8224 118.49 24.6075C118.49 24.4256 118.421 24.2755 118.283 24.1572C118.147 24.0385 117.936 23.9477 117.648 23.8845L116.582 23.6572C115.983 23.5304 115.539 23.3171 115.252 23.0164C114.964 22.7135 114.822 22.3307 114.825 21.8679C114.822 21.4766 114.926 21.1379 115.138 20.8513C115.352 20.5619 115.649 20.3389 116.029 20.1818C116.411 20.022 116.852 19.9421 117.351 19.9421C118.084 19.9421 118.66 20.1007 119.08 20.4173C119.504 20.7342 119.765 21.1628 119.866 21.7027Z" fill="#2C2F3A"/>
</g>
</svg>
